<svg width="18" height="18" viewBox="0 0 18 18" fill="none" xmlns="http://www.w3.org/2000/svg">
<path fill-rule="evenodd" clip-rule="evenodd" d="M8.62506 15C11.7317 15 14.2501 12.4816 14.2501 9.375C14.2501 6.2684 11.7317 3.75 8.62506 3.75C5.51846 3.75 3.00006 6.2684 3.00006 9.375C3.00006 12.4816 5.51846 15 8.62506 15ZM6.05691 8.81796C6.24059 8.89286 6.4505 8.93031 6.68665 8.93031C6.91624 8.93031 7.11959 8.89286 7.29671 8.81796C7.47382 8.74306 7.62142 8.64008 7.73949 8.50902C7.85757 8.37171 7.94613 8.21567 8.00516 8.04092C8.07076 7.85992 8.10356 7.66644 8.10356 7.46047C8.10356 7.02982 7.9822 6.68031 7.73949 6.41193C7.49678 6.13731 7.14583 6 6.68665 6C6.4505 6 6.24387 6.03745 6.06675 6.11234C5.88964 6.181 5.73876 6.28086 5.61413 6.41193C5.49605 6.543 5.40422 6.69903 5.33862 6.88003C5.27958 7.05478 5.25006 7.24827 5.25006 7.46047C5.25006 7.66644 5.27958 7.85992 5.33862 8.04092C5.40422 8.21567 5.49605 8.37171 5.61413 8.50902C5.7322 8.64008 5.8798 8.74306 6.05691 8.81796ZM6.40401 12.1266C6.24585 12.3712 6.42141 12.6938 6.71267 12.6938C6.83753 12.6938 6.95385 12.6304 7.02155 12.5255L10.8213 6.63608C10.9775 6.39393 10.8037 6.0749 10.5155 6.0749C10.392 6.0749 10.277 6.13751 10.2099 6.24119L6.40401 12.1266ZM6.12579 6.90811C6.23731 6.74584 6.42426 6.6647 6.68665 6.6647C6.93592 6.6647 7.11303 6.74584 7.21799 6.90811C7.32295 7.07039 7.37543 7.25451 7.37543 7.46047C7.37543 7.67268 7.32295 7.85992 7.21799 8.02219C7.11303 8.18447 6.93592 8.2656 6.68665 8.2656C6.42426 8.2656 6.23731 8.18759 6.12579 8.03155C6.01427 7.86928 5.95852 7.67892 5.95852 7.46047C5.95852 7.25451 6.01427 7.07039 6.12579 6.90811ZM9.95341 12.6377C10.1371 12.7126 10.347 12.75 10.5832 12.75C10.8062 12.75 11.0063 12.7126 11.1834 12.6377C11.3605 12.5628 11.5081 12.4598 11.6262 12.3287C11.7508 12.1914 11.8426 12.0354 11.9017 11.8606C11.9673 11.6796 12.0001 11.4861 12.0001 11.2802C12.0001 11.068 11.9673 10.8745 11.9017 10.6997C11.8426 10.5187 11.7508 10.3627 11.6262 10.2316C11.5081 10.1006 11.3605 10.0007 11.1834 9.93204C11.0063 9.85714 10.8062 9.81969 10.5832 9.81969C10.347 9.81969 10.1404 9.85714 9.96325 9.93204C9.78614 10.0007 9.63526 10.1006 9.51063 10.2316C9.38599 10.3627 9.29088 10.5187 9.22528 10.6997C9.16624 10.8745 9.13672 11.068 9.13672 11.2802C9.13672 11.4861 9.16624 11.6796 9.22528 11.8606C9.29088 12.0354 9.38271 12.1914 9.50079 12.3287C9.62543 12.4598 9.7763 12.5628 9.95341 12.6377ZM10.0125 10.7278C10.124 10.5655 10.3109 10.4844 10.5733 10.4844C10.8291 10.4844 11.0063 10.5655 11.1047 10.7278C11.2096 10.8901 11.2621 11.0742 11.2621 11.2802C11.2621 11.4924 11.2096 11.6796 11.1047 11.8419C11.0063 12.0042 10.8291 12.0853 10.5733 12.0853C10.3175 12.0853 10.1338 12.0073 10.0223 11.8512C9.91077 11.689 9.85502 11.4986 9.85502 11.2802C9.85502 11.0742 9.90749 10.8901 10.0125 10.7278Z" fill="#CA2250"/>
</svg>
